<svg xmlns="http://www.w3.org/2000/svg" width="102" height="20" viewBox="0 0 102 20">
    <g fill="#FFF" fill-rule="evenodd">
        <text font-family="Montserrat-Regular, Montserrat" font-size="14" opacity=".8">
            <tspan x="30" y="15">Instagram</tspan>
        </text>
        <path fill-rule="nonzero" d="M13.868 9.138h1.253v5.387a.596.596 0 0 1-.596.596H5.448a.596.596 0 0 1-.596-.596V9.138h1.253a3.973 3.973 0 1 0 7.763 0zm-3.882 3.525a2.676 2.676 0 1 0 0-5.353 2.676 2.676 0 0 0 0 5.353zm3.207-5.425h1.02a.541.541 0 0 0 .54-.542V5.677a.541.541 0 0 0-.54-.54h-1.02a.541.541 0 0 0-.541.54v1.02c0 .298.242.54.54.54zM19.973 0v19.973H0V0h19.973zm-3.625 5.23c0-.887-.719-1.605-1.605-1.605H5.23c-.887 0-1.605.718-1.605 1.605v9.513c0 .886.718 1.605 1.605 1.605h9.513c.886 0 1.605-.719 1.605-1.605V5.23z" opacity=".4"/>
    </g>
</svg>
