<svg xmlns="http://www.w3.org/2000/svg" width="18" height="19" viewBox="0 0 18 19">
    <path fill="#5B5B5B" fill-rule="nonzero" d="M11.755.225c.382 0 .692.31.692.691l-.001.691h3.556a1.98 1.98 0 0 1 1.971 1.83l.005.147v12.208a2.598 2.598 0 0 1-2.43 2.59l-.164.004H2.594a2.598 2.598 0 0 1-2.589-2.43L0 15.792V3.584a1.98 1.98 0 0 1 1.83-1.97l.146-.006 3.555-.001v-.69a.692.692 0 0 1 1.384 0l-.001.69h4.149v-.69c0-.382.31-.692.692-.692zM5.531 2.99l-3.555.001a.595.595 0 0 0-.585.497l-.008.096v2.173H14.29a.692.692 0 0 1 .094 1.376l-.094.007H1.383v8.652c0 .626.477 1.143 1.087 1.205l.124.006h12.79c.626 0 1.143-.477 1.205-1.087l.006-.124V3.584a.594.594 0 0 0-.593-.593l-3.556-.001v.692a.692.692 0 0 1-1.382 0l-.001-.692H6.914v.692a.692.692 0 0 1-1.382 0L5.53 2.99z"/>
</svg>
