<svg xmlns="http://www.w3.org/2000/svg" width="30" height="30" viewBox="0 0 30 30">
    <g fill="none" fill-rule="evenodd">
        <path fill="#FF8334" d="M0 0h30v30H0z"/>
        <path fill="#FFF" fill-rule="nonzero" d="M17.779 11.362c-.945-.864-1.761-1.611-1.761-2.882a.48.48 0 0 0-.737-.405l-.076.048c-.476.3-1.743 1.095-2.912 2.299-1.514 1.558-2.281 3.19-2.281 4.849 0 2.702 2.143 4.91 4.812 5.004a2.4 2.4 0 0 0 .128.003H15c1.234 0 2.42-.455 3.338-1.281a.48.48 0 0 0-.642-.713c-.155.14-.32.265-.492.378.08-.235.122-.486.122-.748 0-.914-.544-1.43-1.024-1.885-.452-.429-.81-.767-.81-1.41a.48.48 0 0 0-.789-.366c-.087.074-2.125 1.825-2.125 3.661 0 .229.033.45.094.659a4.052 4.052 0 0 1-1.7-3.302c0-2.025 1.478-4.128 4.179-5.967.105.451.3.878.589 1.292.388.556.898 1.023 1.391 1.474.971.889 1.889 1.728 1.898 3.204.002.38-.049.758-.152 1.12a.48.48 0 1 0 .923.262c.128-.45.19-.917.188-1.388-.012-1.895-1.18-2.963-2.21-3.906zm-4.242 6.552c0-.813.64-1.725 1.193-2.34.221.496.592.847.912 1.15.463.44.725.712.725 1.19a1.411 1.411 0 0 1-1.464 1.404h-.013l-.014-.001a1.41 1.41 0 0 1-1.339-1.403z"/>
    </g>
</svg>
