<svg xmlns="http://www.w3.org/2000/svg" width="40" height="25" viewBox="0 0 40 25">
    <path fill="#FFF" fill-rule="nonzero" d="M27.77 1.274c-2.792 0-5.356.996-7.353 2.65A12.096 12.096 0 0 0 12.155.667C5.443.663 0 6.106 0 12.82c0 6.714 5.443 12.157 12.155 12.157 3.195 0 6.092-1.242 8.262-3.26a11.499 11.499 0 0 0 7.353 2.649c6.366 0 11.546-5.178 11.546-11.546 0-6.369-5.18-11.547-11.546-11.547zm0 20.087c-2.051 0-3.94-.73-5.413-1.947a12.098 12.098 0 0 0 0-13.187 8.495 8.495 0 0 1 5.413-1.942c4.704 0 8.533 3.829 8.533 8.536 0 4.706-3.829 8.54-8.533 8.54z" opacity=".4"/>
</svg>
