<svg xmlns="http://www.w3.org/2000/svg" width="19" height="16" viewBox="0 0 19 16">
    <g fill="#000" fill-rule="nonzero">
        <path d="M9.68 9.68a.857.857 0 0 0 1.212 1.212l2.571-2.571a.863.863 0 0 0 .057-.063l.022-.03c.01-.012.02-.025.028-.038l.022-.036.021-.036c.007-.012.012-.025.018-.038.006-.013.013-.025.018-.038l.014-.038.014-.04.01-.04c.004-.013.008-.028.01-.042.004-.015.005-.03.007-.045.002-.013.005-.025.006-.038a.844.844 0 0 0 .004-.083v-.002a.846.846 0 0 0-.004-.084l-.005-.038-.007-.045-.01-.043-.01-.038-.015-.041-.014-.039-.017-.037c-.006-.013-.012-.026-.02-.039-.005-.011-.013-.023-.02-.034l-.022-.038-.027-.036-.023-.03a.866.866 0 0 0-.054-.06l-.003-.004-2.571-2.571A.857.857 0 0 0 9.68 5.749l1.108 1.108H.858a.857.857 0 0 0 0 1.715h9.93L9.68 9.68z"/>
        <path d="M17.429 0H6.57a.857.857 0 0 0-.857.857v3.429a.857.857 0 0 0 1.715 0V1.714h9.142v12H7.43v-2.571a.857.857 0 0 0-1.715 0v3.428c0 .474.384.858.857.858H17.43a.857.857 0 0 0 .857-.858V.857A.857.857 0 0 0 17.429 0z"/>
    </g>
</svg>
