<svg xmlns="http://www.w3.org/2000/svg" width="18" height="22" viewBox="0 0 18 22">
    <g fill="#F43C3C" fill-rule="nonzero">
        <path d="M16.91 0H.996A.996.996 0 0 0 0 .996v19.142c0 .55.446.996.996.996H16.91a.997.997 0 0 0 .997-.996V.996A.998.998 0 0 0 16.91 0zm-.996 19.141H1.993V1.993h13.921V19.14z"/>
        <path d="M8.978 13.714a5.07 5.07 0 0 0 5.064-5.064V4.582a.996.996 0 1 0-1.993 0V8.65a3.076 3.076 0 0 1-3.072 3.072A3.076 3.076 0 0 1 5.906 8.65V4.582a.997.997 0 0 0-1.993 0V8.65a5.072 5.072 0 0 0 5.065 5.064z"/>
    </g>
</svg>
