<svg xmlns="http://www.w3.org/2000/svg" width="22" height="26" viewBox="0 0 22 26">
    <g fill="#FFF" fill-rule="nonzero">
        <path d="M20.699 0H1.249C.576 0 .03.545.03 1.218v23.395c0 .671.545 1.218 1.218 1.218h19.45c.674 0 1.219-.547 1.219-1.218V1.218A1.22 1.22 0 0 0 20.698 0zM19.48 23.395H2.467V2.435h17.015v20.96h-.001z"/>
        <path d="M10.973 16.761a6.196 6.196 0 0 0 6.189-6.189V5.6a1.218 1.218 0 1 0-2.435 0v4.972a3.76 3.76 0 0 1-3.755 3.755 3.76 3.76 0 0 1-3.754-3.755V5.6a1.218 1.218 0 0 0-2.436 0v4.972a6.199 6.199 0 0 0 6.19 6.19z"/>
    </g>
</svg>
