<svg xmlns="http://www.w3.org/2000/svg" width="20" height="22" viewBox="0 0 20 22">
    <g fill="#FFF" fill-rule="nonzero" opacity=".4">
        <path d="M19.005 4.947c-.2-.246-.431-.47-.688-.671a7.742 7.742 0 0 1-.178 2.033c-.419 1.962-1.42 3.629-2.896 4.82-1.475 1.191-3.316 1.82-5.325 1.82H6.99l-.948 4.443a1.91 1.91 0 0 1-1.86 1.505h-1.32l-.238 1.091a.951.951 0 0 0 .93 1.153H6.78a.95.95 0 0 0 .93-.752l1.109-5.195h3.698c1.79 0 3.424-.556 4.728-1.61 1.304-1.052 2.19-2.532 2.563-4.279.378-1.766.107-3.232-.803-4.358z"/>
        <path d="M5.111 17.194l1.109-5.195h3.698c1.79 0 3.424-.556 4.728-1.61 1.304-1.052 2.19-2.533 2.563-4.279.378-1.766.107-3.232-.803-4.358C15.532.672 14.037 0 12.506 0H4.448a.95.95 0 0 0-.928.748L.025 16.793a.95.95 0 0 0 .928 1.153h3.229a.95.95 0 0 0 .93-.752zM8.07 3.654h2.535c.597 0 1.13.25 1.463.687.355.463.458 1.103.285 1.756l-.007.026c-.319 1.346-1.645 2.44-2.956 2.44H6.96l1.11-4.908z"/>
    </g>
</svg>
