<svg xmlns="http://www.w3.org/2000/svg" width="16" height="20" viewBox="0 0 16 20">
    <path fill="#5B5B5B" fill-rule="nonzero" d="M8 0c2.65 0 5.033 1.248 6.537 3.424 1.496 2.165 1.841 4.905.924 7.331-.243.656-.632 1.298-1.154 1.903L8.524 19.45a.688.688 0 0 1-1.048 0l-5.784-6.794a6.263 6.263 0 0 1-1.154-1.905c-.915-2.422-.57-5.162.926-7.327C2.967 1.248 5.35 0 8 0zm0 1.377a6.48 6.48 0 0 0-5.403 2.83C1.357 6 1.07 8.266 1.827 10.268c.19.511.495 1.011.91 1.492L8 17.942l5.26-6.178.003-.003c.415-.482.72-.982.908-1.488.76-2.007.472-4.273-.767-6.066A6.48 6.48 0 0 0 8 1.377zm-.006 5.29c.854 0 1.553.699 1.553 1.553 0 .855-.7 1.554-1.553 1.554-.855 0-1.554-.7-1.554-1.554 0-.854.7-1.553 1.554-1.553z"/>
</svg>
