<svg xmlns="http://www.w3.org/2000/svg" width="24" height="30" viewBox="0 0 24 30">
    <path fill="#FF8334" fill-rule="nonzero" d="M12 0c3.976 0 7.55 1.872 9.805 5.136 2.244 3.247 2.762 7.358 1.386 10.997-.364.983-.948 1.946-1.731 2.854l-8.673 10.188a1.032 1.032 0 0 1-1.573 0l-8.676-10.19c-.78-.904-1.364-1.867-1.73-2.859-1.374-3.632-.856-7.743 1.388-10.99C4.45 1.872 8.025 0 12 0zm0 2.066c-3.287 0-6.241 1.547-8.105 4.245C2.037 9 1.605 12.399 2.74 15.402c.284.767.743 1.517 1.365 2.238L12 26.913l7.89-9.267.005-.005c.622-.722 1.08-1.473 1.362-2.232 1.138-3.01.707-6.41-1.151-9.099C18.242 3.613 15.287 2.066 12 2.066zM11.99 10a2.337 2.337 0 0 1 2.33 2.33 2.337 2.337 0 0 1-2.33 2.33 2.337 2.337 0 0 1-2.33-2.33A2.337 2.337 0 0 1 11.99 10z"/>
</svg>
