<svg xmlns="http://www.w3.org/2000/svg" width="57" height="81" viewBox="0 0 57 81">
    <g fill="none" fill-rule="evenodd">
        <path fill="#FFF" d="M14.5 20.156v37.851l2.18 11.94L32.39 78l14.206-3.658 8.158-13.386V36.9l-7.411-3.284-22.49.453V19.256L18.45 16.2"/>
        <circle cx="18.45" cy="18.45" r="18.45" fill="#F43C3C"/>
        <g fill-rule="nonzero">
            <path fill="#F1F2F6" d="M47.342 32.716a7.383 7.383 0 0 0-4.983 1.93 7.383 7.383 0 0 0-4.983-1.93c-1.918 0-3.67.732-4.987 1.93a7.382 7.382 0 0 0-4.983-1.93 7.38 7.38 0 0 0-2.555.453V22.714c0-4.088-3.324-7.414-7.41-7.414-4.09 0-7.416 3.326-7.416 7.414v35.922c0 12.33 10.032 22.361 22.363 22.361 12.332 0 22.365-10.031 22.365-22.361V40.127c0-4.087-3.324-7.411-7.411-7.411zm2.555 25.92c0 9.652-7.854 17.505-17.509 17.505-9.654 0-17.507-7.853-17.507-17.505V22.714a2.562 2.562 0 0 1 2.56-2.558 2.56 2.56 0 0 1 2.555 2.558v22.739a2.428 2.428 0 0 0 4.856 0v-5.326a2.558 2.558 0 0 1 2.554-2.555 2.558 2.558 0 0 1 2.554 2.555v5.326a2.428 2.428 0 0 0 4.856 0v-5.326a2.558 2.558 0 0 1 5.115 0v5.326a2.428 2.428 0 0 0 4.856 0v-5.326a2.558 2.558 0 0 1 2.556-2.555 2.558 2.558 0 0 1 2.555 2.555v18.509z"/>
            <path fill="#262A2F" d="M49.142 30.916a7.383 7.383 0 0 0-4.983 1.93 7.383 7.383 0 0 0-4.983-1.93c-1.918 0-3.67.732-4.987 1.93a7.382 7.382 0 0 0-4.983-1.93 7.38 7.38 0 0 0-2.555.453V20.914c0-4.088-3.324-7.414-7.41-7.414-4.09 0-7.416 3.326-7.416 7.414v35.922c0 12.33 10.032 22.361 22.363 22.361 12.332 0 22.365-10.031 22.365-22.361V38.327c0-4.087-3.324-7.411-7.411-7.411zm2.555 25.92c0 9.652-7.854 17.505-17.509 17.505-9.654 0-17.507-7.853-17.507-17.505V20.914a2.562 2.562 0 0 1 2.56-2.558 2.56 2.56 0 0 1 2.555 2.558v22.739a2.428 2.428 0 0 0 4.856 0v-5.326a2.558 2.558 0 0 1 2.554-2.555 2.558 2.558 0 0 1 2.554 2.555v5.326a2.428 2.428 0 0 0 4.856 0v-5.326a2.558 2.558 0 0 1 5.115 0v5.326a2.428 2.428 0 0 0 4.856 0v-5.326a2.558 2.558 0 0 1 2.556-2.555 2.558 2.558 0 0 1 2.555 2.555v18.509z"/>
        </g>
    </g>
</svg>
