<svg xmlns="http://www.w3.org/2000/svg" width="16" height="17" viewBox="0 0 16 17">
    <path fill="#000" fill-rule="nonzero" d="M15.756 14.825l-3.874-4.029a6.55 6.55 0 0 0 1.542-4.225A6.579 6.579 0 0 0 6.853 0 6.579 6.579 0 0 0 .28 6.571a6.579 6.579 0 0 0 6.572 6.572c1.36 0 2.656-.41 3.764-1.19l3.904 4.06a.85.85 0 0 0 .617.263.858.858 0 0 0 .618-1.451zM6.853 1.715A4.863 4.863 0 0 1 11.71 6.57a4.863 4.863 0 0 1-4.857 4.858A4.863 4.863 0 0 1 1.995 6.57a4.863 4.863 0 0 1 4.858-4.857z" opacity=".3"/>
</svg>
