<svg xmlns="http://www.w3.org/2000/svg" width="81" height="68" viewBox="0 0 81 68">
    <g fill="none" fill-rule="evenodd">
        <circle cx="31" cy="30" r="23" fill="#FFF"/>
        <circle cx="18.45" cy="40.95" r="18.45" fill="#F43C3C"/>
        <circle cx="70.65" cy="9.45" r="9.45" fill="#F43C3C"/>
        <g fill-rule="nonzero">
            <path fill="#F1F2F6" d="M67.62 63.109L51.592 47.083a27.508 27.508 0 0 0 6.384-17.643c0-15.241-12.4-27.64-27.64-27.64C15.099 1.8 2.7 14.199 2.7 29.44c0 15.239 12.398 27.637 27.638 27.637 6.702 0 12.854-2.4 17.644-6.383L64.01 66.72a2.545 2.545 0 0 0 1.805.747 2.552 2.552 0 0 0 1.805-4.358zM7.805 29.439c0-12.425 10.108-22.533 22.532-22.533S52.87 17.014 52.87 29.44c0 12.424-10.108 22.532-22.532 22.532S7.806 41.863 7.806 29.439z"/>
            <path fill="#000" d="M69.42 61.309L53.392 45.283a27.508 27.508 0 0 0 6.384-17.643c0-15.241-12.4-27.64-27.64-27.64C16.899 0 4.5 12.399 4.5 27.64c0 15.239 12.398 27.637 27.638 27.637 6.702 0 12.854-2.4 17.644-6.383L65.81 64.92a2.545 2.545 0 0 0 1.805.747 2.552 2.552 0 0 0 1.805-4.358zM9.605 27.639c0-12.425 10.108-22.533 22.532-22.533S54.67 15.214 54.67 27.64c0 12.424-10.108 22.532-22.532 22.532S9.606 40.063 9.606 27.639z"/>
        </g>
    </g>
</svg>
