<svg xmlns="http://www.w3.org/2000/svg" width="65" height="68" viewBox="0 0 65 68">
    <g fill="none" fill-rule="evenodd">
        <path fill="#FFF" d="M11.013 11.794l1.593 28.771 10.068 16.39 13.995 6.076 14.349-7.309 9.23-15.157 2.056-28.216-15.348-3.296L37 2 26.35 9.053z"/>
        <circle cx="18.45" cy="41.45" r="18.45" fill="#F43C3C"/>
        <path fill="#F1F2F6" fill-rule="nonzero" d="M62.233 18.936c-.034-1.776-.066-3.453-.066-5.076a2.302 2.302 0 0 0-2.302-2.303c-9.847 0-17.343-2.83-23.592-8.905a2.302 2.302 0 0 0-3.21 0c-6.248 6.076-13.744 8.905-23.59 8.905a2.302 2.302 0 0 0-2.302 2.303c0 1.623-.032 3.301-.066 5.077-.315 16.527-.748 39.16 26.809 48.712a2.3 2.3 0 0 0 1.508 0c27.558-9.552 27.127-32.186 26.811-48.713zM34.668 63.031C11.035 54.445 11.392 35.639 11.71 19.025c.02-.997.038-1.963.05-2.91 9.222-.39 16.596-3.184 22.91-8.683 6.312 5.499 13.688 8.294 22.91 8.682.013.948.031 1.913.05 2.91.317 16.614.674 35.421-22.96 44.007z"/>
        <path fill="#000" fill-rule="nonzero" d="M64.233 16.936c-.034-1.776-.066-3.453-.066-5.076a2.302 2.302 0 0 0-2.302-2.303c-9.847 0-17.343-2.83-23.592-8.905a2.302 2.302 0 0 0-3.21 0c-6.248 6.076-13.744 8.905-23.59 8.905a2.302 2.302 0 0 0-2.302 2.303c0 1.623-.032 3.301-.066 5.077-.315 16.527-.748 39.16 26.809 48.712a2.3 2.3 0 0 0 1.508 0c27.558-9.552 27.127-32.186 26.811-48.713zM36.668 61.031C13.035 52.445 13.392 33.639 13.71 17.025c.02-.997.038-1.963.05-2.91 9.222-.39 16.596-3.184 22.91-8.683 6.312 5.499 13.688 8.294 22.91 8.682.013.948.031 1.913.05 2.91.317 16.614.674 35.421-22.96 44.007z"/>
        <path fill="#000" fill-rule="nonzero" d="M44.596 24.89L33.484 36.002l-4.742-4.742a2.303 2.303 0 0 0-3.256 3.256l6.37 6.37c.45.45 1.04.674 1.628.674.59 0 1.179-.225 1.628-.674l12.74-12.74a2.302 2.302 0 1 0-3.256-3.256z"/>
    </g>
</svg>
