<svg xmlns="http://www.w3.org/2000/svg" width="26" height="28" viewBox="0 0 26 28">
    <path fill="#FFF" fill-rule="nonzero" d="M25.482.254A1.133 1.133 0 0 0 24.278.2L.602 13.73a1.127 1.127 0 0 0 .203 2.048l7.743 2.58.508 7.698a1.125 1.125 0 0 0 1.125 1.053c.36 0 .705-.172.92-.475l4.255-6.007 5.743 1.914a1.112 1.112 0 0 0 .938-.104c.283-.169.477-.454.53-.78L25.95 1.364c.071-.43-.11-.862-.468-1.11zM9.224 16.207l-5.314-1.77 14.993-8.568-9.68 10.338zm1.874 6.531l-.238-3.61 2.261.755-2.023 2.855zm9.463-2.752l-8.982-2.994 11.535-12.32-2.553 15.314z"/>
</svg>
