<svg xmlns="http://www.w3.org/2000/svg" width="30" height="34" viewBox="0 0 30 34">
    <g fill="#FFF" fill-rule="nonzero" opacity=".4">
        <path d="M3.225 33.697c1.392 0 2.405-.95 2.405-2.278 0-1.266-.886-1.772-1.962-2.152-.696-.19-1.14-.38-1.14-.822 0-.443.317-.76.76-.76.38 0 .696.253.95.57l1.139-.696c-.38-.76-1.14-1.203-2.025-1.203-1.393 0-2.279 1.013-2.279 2.152 0 .886.57 1.645 1.899 2.025.76.19 1.202.38 1.202.949 0 .57-.38.886-.949.886-.633 0-1.076-.38-1.392-.76l-.95.95c.57.696 1.393 1.139 2.342 1.139zm5.569 0c-1.456 0-2.658-1.14-2.658-2.595 0-1.392 1.202-2.594 2.658-2.594 1.455 0 2.658 1.139 2.658 2.594 0 1.456-1.203 2.595-2.658 2.595zm0-1.266a1.27 1.27 0 0 0 1.265-1.265c0-.76-.57-1.266-1.265-1.266a1.27 1.27 0 0 0-1.266 1.266c0 .696.57 1.265 1.266 1.265zm6.075-4.683v-1.265h-.19c-1.709 0-2.531 1.139-2.531 2.404v4.683h1.392v-2.025c0-.696.506-1.139 1.265-1.202v-1.329c-.57 0-1.012.19-1.265.506v-.506c0-.886.57-1.266 1.329-1.266zm2.974 5.949c-1.456 0-2.658-1.14-2.658-2.595 0-1.392 1.202-2.594 2.658-2.594 1.455 0 2.658 1.139 2.658 2.594 0 1.456-1.203 2.595-2.658 2.595zm0-1.266a1.27 1.27 0 0 0 1.266-1.265c0-.76-.57-1.266-1.266-1.266a1.27 1.27 0 0 0-1.266 1.266c0 .696.57 1.265 1.266 1.265zm4.746-3.227v-.57H21.26v4.936h1.392v-2.215c0-.822.507-1.265 1.33-1.265v-1.456c-.697-.063-1.14.127-1.393.57zm3.48 1.835v-1.202c.317.316.76.506 1.266.506v-1.329c-.76 0-1.265-.506-1.265-1.202v-.76h-1.393v4.05c0 1.33.823 2.405 2.532 2.405h.19v-1.266c-.76.064-1.33-.316-1.33-1.202zm2.975 2.595c.506 0 .949-.443.949-.95a.973.973 0 0 0-.95-.949.973.973 0 0 0-.948.95c0 .506.443.949.949.949zM13.223 16.295c.443.442.443 1.139 0 1.518l-.063.064a1.116 1.116 0 0 1-1.582.126l-2.405-2.405c-.696-.696-.759-1.518-.316-1.961l.063-.064c.38-.38.95-.38 1.33-.063.19.127.442.127.632-.063s.127-.443-.063-.633c-.76-.57-1.835-.506-2.468.19l-.064.063c-.759.823-.632 2.152.38 3.164l2.278 2.342c.76.759 2.025.759 2.785-.064l.063-.063c.76-.76.76-2.025-.063-2.784-.19-.19-.443-.19-.633 0-.063.19-.063.506.126.633zM11.768 3.259l.95 8.163c0 .253.252.38.505.38.254 0 .38-.254.38-.507L12.591 3.07v-.064c-.19-.57.253-1.328.822-1.455.317-.063.633 0 .886.19s.443.443.506.76l1.71 7.403c.062.253.315.38.505.317.253-.064.38-.317.317-.507L15.69 2.31A2.376 2.376 0 0 0 14.805.98a1.975 1.975 0 0 0-1.582-.316c-1.075.253-1.771 1.456-1.455 2.595z"/>
        <path d="M20.88 12.877l1.962-9.808c.253-1.076-.38-2.089-1.455-2.405-1.14-.316-2.342.38-2.658 1.519L16.577 9.65c-.063.253.064.443.317.57.253.126.443-.064.57-.317l2.15-7.467c.19-.696.887-1.14 1.583-.95.57.19.95.76.823 1.393l-2.025 9.809c-.064.253.126.442.316.506.316.063.506-.064.57-.317zM15.945 22.306c-3.101 0-5.696-2.278-5.696-5.505a.433.433 0 0 0-.443-.443.433.433 0 0 0-.443.443c0 3.733 3.038 6.391 6.582 6.391.253 0 .442-.19.442-.443a.433.433 0 0 0-.442-.443zM14.363 14.713c-.064.253-.19.442-.443.632l-.064.064c-.506.316-1.202.19-1.518-.317l-1.899-2.847c-.506-.823-.443-1.646.063-1.962l.064-.127c.632-.38 1.202-.063 1.772.76l1.582 2.404c.126.19.38.253.632.127.19-.127.253-.38.127-.633l-1.582-2.405c-.76-1.139-1.772-1.645-2.911-.949l-.19.063c-.95.633-1.076 2.025-.316 3.165l1.898 2.847c.633.886 1.835 1.14 2.721.506l.127-.063c.38-.253.633-.633.76-1.076.062-.253-.064-.443-.317-.506-.19-.063-.443.063-.506.316z"/>
        <path d="M17.273 16.105c-.886.506-1.455 1.455-1.518 2.91 0 .254.19.444.443.444s.443-.19.443-.443c.063-1.33.57-2.025 1.392-2.342.443-.19.949-.19 1.329-.126h.126c.57.126.76-.76.19-.886l-3.354-.76c-1.582-.443-1.835-1.012-1.519-1.961.127-.443.38-.633.76-.696.253-.064.57-.064.822 0 .064 0 .127 0 .19.063l5.126 1.202c.063 0 .063 0 .127.063.063.064.19.127.253.19.316.38.506 1.076.443 2.215-.317 3.987-2.152 6.455-6.581 6.392a.433.433 0 0 0-.443.442c0 .254.19.443.443.443 4.935.064 7.087-2.847 7.467-7.214.126-1.329-.127-2.278-.696-2.847-.38-.38-.696-.507-.95-.507l-5.062-1.202c-.063 0-.127 0-.253-.063a3.44 3.44 0 0 0-1.14 0c-.695.126-1.202.57-1.391 1.329-.443 1.392 0 2.531 2.151 3.1l1.202.254z"/>
    </g>
</svg>
