<svg xmlns="http://www.w3.org/2000/svg" width="26" height="26" viewBox="0 0 26 26">
    <path fill="#FFF" fill-rule="nonzero" d="M20.744 0l2.583 5.49-.864.45a2.024 2.024 0 0 0-1.094 1.801c0 1.068.829 1.946 1.877 2.023l.151.006h2.587v6.086H24.97c-1.119 0-2.03.91-2.03 2.029 0 1.068.83 1.946 1.878 2.023l.152.006h1.014V26H.016v-6.086H1.03c1.119 0 2.03-.91 2.03-2.029 0-1.068-.83-1.946-1.878-2.023l-.152-.006H.016V9.77h.026L.04 9.765 20.744 0zm-3.382 11.799H2.045v2.157a4.065 4.065 0 0 1 3.043 3.929c0 1.817-1.201 3.36-2.851 3.874l-.192.055v2.157h15.317a1.014 1.014 0 0 1 2.023-.11l.006.11h4.564v-2.157a4.065 4.065 0 0 1-3.043-3.929c0-1.817 1.2-3.36 2.85-3.874l.193-.055v-2.157h-4.564a1.014 1.014 0 1 1-2.03 0zm1.014 8.115a1.014 1.014 0 1 1 0 2.028 1.014 1.014 0 0 1 0-2.028zm0-3.043a1.014 1.014 0 1 1 0 2.028 1.014 1.014 0 0 1 0-2.028zm0-3.044a1.014 1.014 0 1 1 0 2.03 1.014 1.014 0 0 1 0-2.03zm1.396-11.126l-4.12 1.944a1.014 1.014 0 0 1-1.774.964l-.058-.1L4.786 9.77h15.1a4.031 4.031 0 0 1-.546-2.029c0-1.104.443-2.136 1.204-2.886l.168-.156-.94-1.998zm-3.73 4.127a1.014 1.014 0 1 1 0 2.029 1.014 1.014 0 0 1 0-2.029z"/>
</svg>
