<svg xmlns="http://www.w3.org/2000/svg" width="40" height="14" viewBox="0 0 40 14">
    <g fill="#FFF" fill-rule="nonzero" opacity=".4">
        <path d="M3.075 2.963L4.511 13.25h3.527L14.61.512h-3.706L8.113 6.42a60.517 60.517 0 0 0-1.03 2.293 90.686 90.686 0 0 0-.184-2.15L6.33.512H.697l5.862 4.639-3.483-2.188zM17.142 13.25L19.558.511H16.24l-2.42 12.737zM19.087 12.499c.777.582 2.145.931 3.658.931 3.139 0 5.245-1.773 5.245-4.41 0-1.442-.843-2.587-2.57-3.494-.971-.541-1.557-.907-1.557-1.366 0-.43.453-.894 1.52-.894 1.039 0 1.84.406 1.987.487l.378.209 1.06-2.84L28.53.97c-.79-.437-1.776-.651-3.006-.651-3.007 0-5.106 1.755-5.106 4.267 0 1.824 1.434 2.836 2.692 3.514 1.186.613 1.417.964 1.417 1.363 0 .763-.827 1.037-1.534 1.037a5.277 5.277 0 0 1-2.637-.713l-.375-.225-1.121 2.763.228.174zM31.19 13.25l1.425-3.113h2.874l.249 3.112h3.446L37.69.512h-3.855l-6.2 12.737h3.555zm3.464-7.871c.133-.287.269-.61.402-.951.023.303.047.585.065.831l.197 2.179h-1.611l.947-2.06z"/>
    </g>
</svg>
