<svg xmlns="http://www.w3.org/2000/svg" width="67" height="19" viewBox="0 0 67 19">
    <g fill="#FFF" fill-rule="nonzero" opacity=".4">
        <path d="M9.383.041A9.382 9.382 0 0 0 0 9.424c0 5.184 4.2 9.384 9.383 9.384 5.184 0 9.377-4.2 9.377-9.384 0-5.183-4.2-9.383-9.377-9.383zm3.272 14.137a4.94 4.94 0 0 1-.875.314c-1.14.314-2.287.328-3.421-.041-1.373-.444-2.288-1.38-2.827-2.698-.103-.253-.178-.519-.253-.785H4.193a.324.324 0 0 1-.328-.328v-.724c0-.184.144-.328.328-.328h.888v-.594h-.888a.324.324 0 0 1-.328-.328v-.724c0-.184.144-.327.328-.327h1.134l.04-.11c.308-.97.827-1.796 1.64-2.424.642-.499 1.38-.772 2.178-.901 1.134-.185 2.227-.028 3.292.389.068.027.137.061.198.095.253.15.321.342.205.615-.123.287-.239.574-.369.86-.109.246-.266.321-.526.26-.355-.082-.71-.191-1.072-.266-.758-.157-1.51-.164-2.247.13-.635.252-1.017.73-1.284 1.338-.006.007-.006.014-.006.02H9.58c.185 0 .328.144.328.328v.724a.324.324 0 0 1-.328.328H7.068c-.007.191 0 .39 0 .594h2.52c.185 0 .328.144.328.328v.724a.324.324 0 0 1-.328.328H7.287c.28.792.73 1.406 1.577 1.673.676.212 1.36.198 2.05.061.354-.075.703-.184 1.058-.26.28-.06.43.014.546.267.13.287.253.574.369.867.11.26.04.472-.232.595zM24.599 13.105l-2.431-7.587h1.878l.922 3.21c.26.901.498 1.769.676 2.711h.034c.191-.915.43-1.81.69-2.677l.97-3.244h1.823l-2.554 7.587h-2.008zM34.877 10.292c0 2.014-1.427 2.936-2.902 2.936-1.612 0-2.848-1.058-2.848-2.834 0-1.775 1.168-2.916 2.936-2.916 1.687 0 2.814 1.161 2.814 2.814zm-3.988.054c0 .943.396 1.653 1.127 1.653.662 0 1.092-.662 1.092-1.653 0-.82-.314-1.652-1.092-1.652-.82 0-1.127.846-1.127 1.652zM35.936 9.418c0-.813-.02-1.339-.048-1.81h1.475l.055 1.01h.047c.28-.798.956-1.133 1.49-1.133.156 0 .238 0 .361.02v1.612c-.123-.02-.273-.048-.464-.048-.629 0-1.059.335-1.168.868-.02.109-.034.245-.034.382v2.793h-1.714V9.418zM41.89 9.923h.021c.123-.225.26-.45.396-.663l1.113-1.652h2.063l-1.974 2.226 2.254 3.278H43.66l-1.332-2.26-.437.54v1.72h-1.714v-7.99h1.714v4.8zM49.464 13.105l-.102-.553h-.034c-.362.437-.922.676-1.578.676-1.113 0-1.775-.812-1.775-1.687 0-1.427 1.284-2.117 3.23-2.103v-.082c0-.294-.157-.71-1.004-.71-.56 0-1.161.191-1.523.416l-.314-1.106c.382-.212 1.134-.485 2.137-.485 1.838 0 2.418 1.08 2.418 2.377v1.912c0 .526.02 1.038.082 1.339h-1.537v.006zm-.204-2.595c-.902-.013-1.599.205-1.599.868 0 .437.294.655.677.655.43 0 .778-.28.887-.628.02-.089.035-.191.035-.294v-.6zM52.264 11.61c.315.191.97.416 1.476.416.519 0 .73-.177.73-.464 0-.287-.17-.417-.812-.628-1.134-.383-1.578-1.004-1.564-1.653 0-1.024.88-1.803 2.24-1.803.642 0 1.215.143 1.55.314l-.307 1.182a2.665 2.665 0 0 0-1.196-.314c-.416 0-.655.17-.655.45 0 .26.212.396.888.629 1.045.361 1.488.887 1.495 1.7 0 1.024-.812 1.776-2.383 1.776-.717 0-1.36-.157-1.776-.383l.314-1.222zM57.154 11.61c.314.191.97.416 1.475.416.52 0 .731-.177.731-.464 0-.287-.17-.417-.813-.628-1.133-.383-1.577-1.004-1.564-1.653 0-1.024.881-1.803 2.24-1.803.642 0 1.216.143 1.55.314l-.307 1.182a2.665 2.665 0 0 0-1.195-.314c-.416 0-.655.17-.655.45 0 .26.211.396.887.629 1.045.361 1.49.887 1.496 1.7 0 1.024-.813 1.776-2.383 1.776-.717 0-1.36-.157-1.776-.383l.314-1.222zM63.369 10.9c.054.71.751 1.044 1.55 1.044a4.96 4.96 0 0 0 1.523-.225l.225 1.161c-.56.225-1.25.335-1.994.335-1.871 0-2.936-1.08-2.936-2.8 0-1.394.867-2.937 2.78-2.937 1.775 0 2.45 1.386 2.45 2.745 0 .294-.033.554-.054.677H63.37zm2.014-1.168c0-.417-.177-1.113-.97-1.113-.716 0-1.01.655-1.058 1.113h2.028z"/>
    </g>
</svg>
