<svg xmlns="http://www.w3.org/2000/svg" width="17" height="15" viewBox="0 0 17 15">
    <path fill="#F43C3C" fill-rule="nonzero" d="M14.68.012v2.67h-1.334V1.346H2.669c-.734 0-1.334.6-1.334 1.334 0 .734.6 1.335 1.334 1.335h13.346v10.677H3.336A3.304 3.304 0 0 1 0 11.356V2.681A2.677 2.677 0 0 1 2.67.012h12.01zM1.336 4.95v6.406c0 1.135.867 2.002 2.001 2.002h11.345V5.35H2.669c-.467 0-.934-.133-1.334-.4zm9.342 3.07c.734 0 1.334.6 1.334 1.334 0 .734-.6 1.335-1.334 1.335-.734 0-1.335-.6-1.335-1.335 0-.734.6-1.334 1.335-1.334z"/>
</svg>
