<svg xmlns="http://www.w3.org/2000/svg" width="69" height="70" viewBox="0 0 69 70">
    <g fill="none" fill-rule="evenodd">
        <path fill="#FFF" d="M5.394 26.348V64.65H59.22V53.007l7.28-1.237-.808-13.506H59.22V26.348l-5.284-1.6v-6.405H10.199v6.405"/>
        <circle cx="32.85" cy="18.45" r="18.45" fill="#F43C3C"/>
        <path fill="#F1F2F6" fill-rule="nonzero" d="M63.29 38.1h-4.55v-9.35a2.402 2.402 0 0 0-2.402-2.402h-2.991v-5.603a2.402 2.402 0 0 0-2.403-2.402H7.796a2.402 2.402 0 0 0-2.402 2.402v5.603H2.402A2.402 2.402 0 0 0 0 28.75v38.302a2.402 2.402 0 0 0 2.402 2.402h53.936a2.402 2.402 0 0 0 2.403-2.402v-9.24h4.548a2.402 2.402 0 0 0 2.403-2.403V40.502a2.402 2.402 0 0 0-2.403-2.402zM10.198 23.148h38.343v3.2H10.2v-3.2zM53.936 64.65H4.805V31.153h49.13V38.1H42.298a2.402 2.402 0 0 0-2.402 2.403V55.41a2.402 2.402 0 0 0 2.402 2.402h11.639v6.838zm6.951-11.643H44.7V42.905h16.187v10.102z"/>
        <path fill="#000" fill-rule="nonzero" d="M65.99 35.3h-4.55v-9.35a2.402 2.402 0 0 0-2.402-2.402h-2.991v-5.603a2.402 2.402 0 0 0-2.403-2.402H10.496a2.402 2.402 0 0 0-2.402 2.402v5.603H5.102A2.402 2.402 0 0 0 2.7 25.95v38.302a2.402 2.402 0 0 0 2.402 2.402h53.936a2.402 2.402 0 0 0 2.403-2.402v-9.24h4.548a2.402 2.402 0 0 0 2.403-2.403V37.702a2.402 2.402 0 0 0-2.403-2.402zM12.898 20.348h38.343v3.2H12.9v-3.2zM56.636 61.85H7.505V28.353h49.13V35.3H44.998a2.402 2.402 0 0 0-2.402 2.403V52.61a2.402 2.402 0 0 0 2.402 2.402h11.639v6.838zm6.951-11.643H47.4V40.105h16.187v10.102z"/>
        <circle cx="55.493" cy="45.156" r="3.727" fill="#000" fill-rule="nonzero"/>
    </g>
</svg>
